<svg id="Layer_1" data-name="Layer 1" xmlns="http://www.w3.org/2000/svg" xmlns:xlink="http://www.w3.org/1999/xlink" viewBox="0 0 180 48"><defs><style>.cls-1{fill:none;}.cls-2{fill:#fbbc05;}.cls-3{fill:#4285f4;}.cls-4{fill:#34a853;}.cls-5{fill:#fff;}.cls-6{fill:#ea4335;}.cls-7{isolation:isolate;}.cls-8{fill:#001023;}.cls-9{clip-path:url(#clip-path);}.cls-10{fill:#001024;}.cls-11{fill:#001b3d;}.cls-12{clip-path:url(#clip-path-2);}.cls-13{clip-path:url(#clip-path-3);}.cls-14{clip-path:url(#clip-path-4);}.cls-15{clip-path:url(#clip-path-5);}.cls-16{clip-path:url(#clip-path-6);}.cls-17{clip-path:url(#clip-path-7);}.cls-18{clip-path:url(#clip-path-8);}.cls-19{clip-path:url(#clip-path-9);}.cls-20{clip-path:url(#clip-path-10);}.cls-21{clip-path:url(#clip-path-11);}.cls-22{clip-path:url(#clip-path-12);}.cls-23{clip-path:url(#clip-path-13);}.cls-24{clip-path:url(#clip-path-14);}.cls-25{clip-path:url(#clip-path-15);}.cls-26{clip-path:url(#clip-path-16);}.cls-27{clip-path:url(#clip-path-17);}.cls-28{clip-path:url(#clip-path-18);}.cls-29{clip-path:url(#clip-path-19);}.cls-30{clip-path:url(#clip-path-20);}</style><clipPath id="clip-path"><path class="cls-1" d="M56.28,24.07l-.28.25A6,6,0,0,1,55.74,23l.29-.25A6.39,6.39,0,0,0,56.28,24.07Z"/></clipPath><clipPath id="clip-path-2"><path class="cls-1" d="M83.7,24.11l.29-.25a4.84,4.84,0,0,1,3.26-1.1,6.83,6.83,0,0,1,3.51.92l-.28.25A6.8,6.8,0,0,0,87,23,4.85,4.85,0,0,0,83.7,24.11Z"/></clipPath><clipPath id="clip-path-3"><path class="cls-1" d="M81.15,22l.29-.25-.39.36a7.83,7.83,0,0,0-2.3,5.85,7.33,7.33,0,0,0,2,5.43,7.57,7.57,0,0,0,5.57,2,10.36,10.36,0,0,0,4.4-.8l-.29.25a10.19,10.19,0,0,1-4.4.79,7.48,7.48,0,0,1-5.56-2,7.37,7.37,0,0,1-2-5.44,7.87,7.87,0,0,1,2.3-5.84Q81,22.14,81.15,22Z"/></clipPath><clipPath id="clip-path-4"><path class="cls-1" d="M72.32,26.17l-.29.24a2.08,2.08,0,0,0,.69-1.58c0-1.32-.8-2-2.41-2l.29-.25c1.61,0,2.41.66,2.41,2A2.12,2.12,0,0,1,72.32,26.17Z"/></clipPath><clipPath id="clip-path-5"><path class="cls-1" d="M72.26,26.22l-.29.25.06-.06.29-.24Z"/></clipPath><clipPath id="clip-path-6"><path class="cls-1" d="M75.23,27.3l-.28.25a5.73,5.73,0,0,1-.62.44,5.33,5.33,0,0,1-1.42.6l.29-.24a5.34,5.34,0,0,0,1.42-.61A4,4,0,0,0,75.23,27.3Z"/></clipPath><clipPath id="clip-path-7"><path class="cls-1" d="M71.57,30.45l-.29.25a5.29,5.29,0,0,0-.5-.6l.29-.24A6.17,6.17,0,0,1,71.57,30.45Z"/></clipPath><clipPath id="clip-path-8"><path class="cls-1" d="M72.08,31.25l-.28.24c-.18-.3-.35-.56-.52-.79l.29-.25C71.73,30.69,71.9,31,72.08,31.25Z"/></clipPath><clipPath id="clip-path-9"><path class="cls-1" d="M71.07,29.86l-.29.24a2.22,2.22,0,0,0-.52-.38l.29-.24A2,2,0,0,1,71.07,29.86Z"/></clipPath><clipPath id="clip-path-10"><path class="cls-1" d="M70.55,29.48l-.29.24a1.53,1.53,0,0,0-.6-.12l.28-.25A1.55,1.55,0,0,1,70.55,29.48Z"/></clipPath><clipPath id="clip-path-11"><path class="cls-1" d="M116.57,24.2l-.28.25A5.48,5.48,0,0,1,116,23.1l.29-.25A6,6,0,0,0,116.57,24.2Z"/></clipPath><clipPath id="clip-path-12"><path class="cls-1" d="M132.61,26.3l-.29.24A2.08,2.08,0,0,0,133,25c0-1.32-.8-2-2.42-2l.29-.24c1.62,0,2.42.66,2.42,2A2.13,2.13,0,0,1,132.61,26.3Z"/></clipPath><clipPath id="clip-path-13"><path class="cls-1" d="M132.55,26.35l-.29.24.06-.05.29-.24Z"/></clipPath><clipPath id="clip-path-14"><path class="cls-1" d="M135.51,27.44l-.29.24a3.82,3.82,0,0,1-.6.43,5.49,5.49,0,0,1-1.42.61l.29-.24a5.85,5.85,0,0,0,1.42-.61A4.6,4.6,0,0,0,135.51,27.44Z"/></clipPath><clipPath id="clip-path-15"><path class="cls-1" d="M132.37,31.37l-.28.25c-.18-.3-.35-.56-.52-.8a6.17,6.17,0,0,0-.5-.59l.29-.25a5.08,5.08,0,0,1,.49.6C132,30.81,132.19,31.08,132.37,31.37Z"/></clipPath><clipPath id="clip-path-16"><path class="cls-1" d="M131.36,30l-.29.25a2.08,2.08,0,0,0-.53-.38l.29-.24A2,2,0,0,1,131.36,30Z"/></clipPath><clipPath id="clip-path-17"><path class="cls-1" d="M130.83,29.61l-.29.24a1.45,1.45,0,0,0-.59-.13l.28-.24A1.32,1.32,0,0,1,130.83,29.61Z"/></clipPath><clipPath id="clip-path-18"><path class="cls-1" d="M157.83,30.63l-.29.25c0-.35,0-1,0-2.06l.28-.25C157.79,29.6,157.82,30.28,157.83,30.63Z"/></clipPath><clipPath id="clip-path-19"><path class="cls-1" d="M151.22,25.83l-.29.25c-.36-.56-.62-1-.77-1.25l.29-.25A14.19,14.19,0,0,0,151.22,25.83Z"/></clipPath><clipPath id="clip-path-20"><path class="cls-1" d="M170.84,24.32l-.28.24a6,6,0,0,1-.26-1.35l.29-.24A6.65,6.65,0,0,0,170.84,24.32Z"/></clipPath></defs><path class="cls-2" d="M19.51,9.65l7.56-4.14h0L42.67,34A4.31,4.31,0,0,1,41,39.83h0a4.32,4.32,0,0,1-5.86-1.71h0L19.51,9.65Z"/><path class="cls-3" d="M26.3,4.76h0a4.27,4.27,0,0,1,1.56,5.83L11.75,38.49a4.26,4.26,0,0,1-5.83,1.57h0a4.26,4.26,0,0,1-1.55-5.83L20.48,6.33A4.25,4.25,0,0,1,26.3,4.76Z"/><path class="cls-2" d="M17.39,11.66h0a8.54,8.54,0,0,1,3.13,11.65h0l-5,8.63h0L8.15,27.68h0l9.24-16Z"/><path class="cls-4" d="M20.49,23.36h0L11.74,38.52A4.33,4.33,0,0,1,5.82,40.1h0a4.34,4.34,0,0,1-1.59-5.92l4.42-7.64A8.67,8.67,0,0,1,20.49,23.36Z"/><path class="cls-5" d="M4.6,33.53h0a4.21,4.21,0,0,1,1.78-1.64h0a41.3,41.3,0,0,1,11.34-3.8l1.9-3.29a43.12,43.12,0,0,0-12,3.47Z"/><path class="cls-3" d="M31.51,13.61h0l8.4,15.33A4.32,4.32,0,0,1,38.2,34.8h0a4.31,4.31,0,0,1-5.84-1.72L28.1,25.31A8.62,8.62,0,0,1,31.52,13.6h0Z"/><path class="cls-6" d="M27.89,24.94h0a8.74,8.74,0,0,1,11.87,3.47l3.16,5.75a4.38,4.38,0,0,1-1.74,5.94h0a4.36,4.36,0,0,1-5.93-1.73L27.89,24.94Z"/><path class="cls-5" d="M30,28.7a41,41,0,0,1,11.3,4h0a4.27,4.27,0,0,1,1.78,1.69h0l-3-5.28a43.51,43.51,0,0,0-12-3.7Z"/><g class="cls-7"><polygon class="cls-8" points="56.03 22.72 55.74 22.97 55.66 22.97 55.95 22.72 56.03 22.72"/><g class="cls-7"><g class="cls-9"><g class="cls-7"><path class="cls-10" d="M56.28,24.07l-.28.25A6,6,0,0,1,55.74,23l.29-.25a6.39,6.39,0,0,0,.25,1.35"/></g></g></g><polygon class="cls-8" points="57.93 29.14 57.64 29.38 56 24.32 56.28 24.07 57.93 29.14"/><polygon class="cls-8" points="59.81 35.09 59.52 35.33 58.43 31.98 58.72 31.74 59.81 35.09"/><polygon class="cls-8" points="63.59 35.1 63.3 35.34 59.52 35.33 59.81 35.09 63.59 35.1"/><polygon class="cls-8" points="58.72 31.74 58.43 31.98 52.95 31.97 53.24 31.73 58.72 31.74"/><polygon class="cls-8" points="48.39 35.06 48.1 35.31 53.74 20.27 54.02 20.03 48.39 35.06"/><polygon class="cls-8" points="52.15 35.07 51.86 35.32 48.1 35.31 48.39 35.06 52.15 35.07"/><path class="cls-11" d="M58.14,20,63.59,35.1H59.81l-1.09-3.35H53.24l-1.09,3.34H48.39L54,20ZM54,29.13h3.94l-1.65-5.07A6.39,6.39,0,0,1,56,22.72H56A5.37,5.37,0,0,1,55.67,24L54,29.13"/></g><g class="cls-7"><g class="cls-7"><g class="cls-12"><g class="cls-7"><path class="cls-10" d="M90.76,23.68l-.28.25A6.8,6.8,0,0,0,87,23a4.85,4.85,0,0,0-3.26,1.1l.29-.25a4.84,4.84,0,0,1,3.26-1.1,6.83,6.83,0,0,1,3.51.92"/></g></g></g><g class="cls-7"><g class="cls-13"><g class="cls-7"><path class="cls-10" d="M90.74,34.61l-.29.25a10.19,10.19,0,0,1-4.4.79,7.48,7.48,0,0,1-5.56-2,7.37,7.37,0,0,1-2-5.44,7.87,7.87,0,0,1,2.3-5.84q.19-.2.39-.36l.29-.25-.39.36a7.83,7.83,0,0,0-2.3,5.85,7.33,7.33,0,0,0,2,5.43,7.57,7.57,0,0,0,5.57,2,10.36,10.36,0,0,0,4.4-.8"/></g></g></g><path class="cls-11" d="M87,19.85a11.24,11.24,0,0,1,3.8.56v3.27a6.83,6.83,0,0,0-3.51-.92,4.8,4.8,0,0,0-3.51,1.33,4.91,4.91,0,0,0-1.34,3.6,4.8,4.8,0,0,0,1.25,3.49A4.48,4.48,0,0,0,87,32.48a7.27,7.27,0,0,0,3.72-1v3.09a10.36,10.36,0,0,1-4.4.8,7.57,7.57,0,0,1-5.57-2,7.33,7.33,0,0,1-2-5.43,7.83,7.83,0,0,1,2.3-5.85A8,8,0,0,1,87,19.85Z"/></g><g class="cls-7"><g class="cls-7"><g class="cls-14"><g class="cls-7"><path class="cls-10" d="M72.32,26.17l-.29.24a2.08,2.08,0,0,0,.69-1.58c0-1.32-.8-2-2.41-2l.29-.25c1.61,0,2.41.66,2.41,2a2.12,2.12,0,0,1-.69,1.58"/></g></g></g><g class="cls-7"><g class="cls-15"><g class="cls-7"><path class="cls-10" d="M72.26,26.22l-.29.25.06-.06.29-.24-.06,0"/></g></g></g><polygon class="cls-8" points="70.6 22.6 70.31 22.85 68.75 22.84 69.03 22.6 70.6 22.6"/><g class="cls-7"><g class="cls-16"><g class="cls-7"><path class="cls-10" d="M75.23,27.3l-.28.25a5.73,5.73,0,0,1-.62.44,5.33,5.33,0,0,1-1.42.6l.29-.24a5.34,5.34,0,0,0,1.42-.61,4,4,0,0,0,.61-.44"/></g></g></g><g class="cls-7"><g class="cls-17"><g class="cls-7"><path class="cls-10" d="M71.57,30.45l-.29.25a5.29,5.29,0,0,0-.5-.6l.29-.24a6.17,6.17,0,0,1,.5.59"/></g></g></g><g class="cls-7"><g class="cls-18"><g class="cls-7"><path class="cls-10" d="M72.08,31.25l-.28.24c-.18-.3-.35-.56-.52-.79l.29-.25c.16.24.33.5.51.8"/></g></g></g><g class="cls-7"><g class="cls-19"><g class="cls-7"><path class="cls-10" d="M71.07,29.86l-.29.24a2.22,2.22,0,0,0-.52-.38l.29-.24a2,2,0,0,1,.52.38"/></g></g></g><g class="cls-7"><g class="cls-20"><g class="cls-7"><path class="cls-10" d="M70.55,29.48l-.29.24a1.53,1.53,0,0,0-.6-.12l.28-.25a1.55,1.55,0,0,1,.61.13"/></g></g></g><polygon class="cls-8" points="78.45 35.13 78.17 35.37 74.18 35.37 74.47 35.12 78.45 35.13"/><polygon class="cls-8" points="74.47 35.12 74.18 35.37 71.8 31.49 72.08 31.25 74.47 35.12"/><polygon class="cls-8" points="69.94 29.35 69.66 29.6 68.73 29.59 69.02 29.35 69.94 29.35"/><polygon class="cls-8" points="69.01 35.11 68.72 35.35 65.25 35.35 65.53 35.1 69.01 35.11"/><path class="cls-11" d="M75.55,30.68l2.91,4.45h-4l-2.39-3.87c-.18-.3-.35-.56-.51-.8a6.17,6.17,0,0,0-.5-.59,2,2,0,0,0-.52-.38,1.55,1.55,0,0,0-.61-.13H69v5.76H65.53l0-15,5.5,0c3.74,0,5.61,1.38,5.6,4.1a4,4,0,0,1-.25,1.45,4,4,0,0,1-.7,1.21,4.4,4.4,0,0,1-1.09.91,5.34,5.34,0,0,1-1.42.61v0a2.44,2.44,0,0,1,.66.34,4,4,0,0,1,.62.56,7.54,7.54,0,0,1,.58.67C75.23,30.21,75.41,30.44,75.55,30.68Zm-3.23-4.51A2.12,2.12,0,0,0,73,24.59c0-1.33-.8-2-2.41-2H69v4.18h1.51a2.58,2.58,0,0,0,1.79-.62"/><polygon class="cls-8" points="65.53 35.1 65.25 35.35 65.28 20.3 65.56 20.05 65.53 35.1"/></g><g class="cls-7"><polygon class="cls-8" points="103.32 26.14 103.04 26.38 103.05 20.38 103.33 20.13 103.32 26.14"/><polygon class="cls-8" points="103.3 35.18 103.02 35.43 103.03 29.3 103.32 29.05 103.3 35.18"/><polygon class="cls-8" points="106.78 35.19 106.49 35.43 103.02 35.43 103.3 35.18 106.78 35.19"/><polygon class="cls-8" points="103.32 29.05 103.03 29.3 96.65 29.28 96.94 29.04 103.32 29.05"/><polygon class="cls-8" points="93.45 35.16 93.16 35.41 93.19 20.36 93.48 20.11 93.45 35.16"/><polygon class="cls-8" points="96.92 35.17 96.64 35.41 93.16 35.41 93.45 35.16 96.92 35.17"/><polygon class="cls-11" points="106.81 20.14 106.78 35.19 103.3 35.18 103.32 29.05 96.94 29.04 96.92 35.17 93.45 35.16 93.48 20.11 96.95 20.12 96.94 26.12 103.32 26.14 103.33 20.13 106.81 20.14"/></g><g class="cls-7"><polygon class="cls-8" points="116.32 22.85 116.03 23.1 115.94 23.1 116.23 22.85 116.32 22.85"/><g class="cls-7"><g class="cls-21"><g class="cls-7"><path class="cls-10" d="M116.57,24.2l-.28.25A5.48,5.48,0,0,1,116,23.1l.29-.25a6,6,0,0,0,.25,1.35"/></g></g></g><polygon class="cls-8" points="118.21 29.26 117.92 29.51 116.29 24.45 116.58 24.2 118.21 29.26"/><polygon class="cls-8" points="120.09 35.22 119.8 35.46 118.72 32.11 119.01 31.87 120.09 35.22"/><polygon class="cls-8" points="123.88 35.23 123.59 35.47 119.8 35.46 120.09 35.22 123.88 35.23"/><polygon class="cls-8" points="119.01 31.87 118.72 32.11 113.24 32.1 113.53 31.86 119.01 31.87"/><polygon class="cls-8" points="108.68 35.19 108.39 35.44 114.03 20.4 114.31 20.16 108.68 35.19"/><polygon class="cls-8" points="112.43 35.2 112.14 35.45 108.39 35.44 108.68 35.19 112.43 35.2"/><path class="cls-11" d="M118.43,20.17l5.45,15h-3.79L119,31.87l-5.48,0-1.1,3.35h-3.75l5.64-15Zm-4.16,9.09h3.94l-1.64-5.06a6,6,0,0,1-.25-1.35h-.09a6.11,6.11,0,0,1-.27,1.31l-1.69,5.1"/></g><g class="cls-7"><g class="cls-7"><g class="cls-22"><g class="cls-7"><path class="cls-10" d="M132.61,26.3l-.29.24A2.08,2.08,0,0,0,133,25c0-1.32-.8-2-2.42-2l.29-.24c1.62,0,2.42.66,2.42,2a2.13,2.13,0,0,1-.69,1.59"/></g></g></g><g class="cls-7"><g class="cls-23"><g class="cls-7"><path class="cls-10" d="M132.55,26.35l-.29.24.06-.05.29-.24-.06.05"/></g></g></g><polygon class="cls-8" points="130.88 22.73 130.59 22.98 129.03 22.97 129.31 22.73 130.88 22.73"/><g class="cls-7"><g class="cls-24"><g class="cls-7"><path class="cls-10" d="M135.51,27.44l-.29.24a3.82,3.82,0,0,1-.6.43,5.49,5.49,0,0,1-1.42.61l.29-.24a5.85,5.85,0,0,0,1.42-.61,4.6,4.6,0,0,0,.6-.43"/></g></g></g><g class="cls-7"><g class="cls-25"><g class="cls-7"><path class="cls-10" d="M132.37,31.37l-.28.25c-.18-.3-.35-.56-.52-.8a6.17,6.17,0,0,0-.5-.59l.29-.25a5.08,5.08,0,0,1,.49.6c.17.23.34.5.52.79"/></g></g></g><g class="cls-7"><g class="cls-26"><g class="cls-7"><path class="cls-10" d="M131.36,30l-.29.25a2.08,2.08,0,0,0-.53-.38l.29-.24a2,2,0,0,1,.53.37"/></g></g></g><g class="cls-7"><g class="cls-27"><g class="cls-7"><path class="cls-10" d="M130.83,29.61l-.29.24a1.45,1.45,0,0,0-.59-.13l.28-.24a1.32,1.32,0,0,1,.6.13"/></g></g></g><polygon class="cls-8" points="138.75 35.26 138.46 35.5 134.47 35.49 134.76 35.25 138.75 35.26"/><polygon class="cls-8" points="134.76 35.25 134.47 35.49 132.09 31.62 132.37 31.37 134.76 35.25"/><polygon class="cls-8" points="130.24 29.48 129.95 29.72 129.01 29.72 129.3 29.48 130.24 29.48"/><polygon class="cls-8" points="129.29 35.24 129 35.48 125.53 35.47 125.82 35.23 129.29 35.24"/><path class="cls-11" d="M135.84,30.8l2.91,4.46h-4l-2.39-3.88c-.18-.29-.35-.56-.52-.79a5.08,5.08,0,0,0-.49-.6,2,2,0,0,0-.53-.37,1.32,1.32,0,0,0-.6-.13h-.93v5.76h-3.47l0-15h5.5q5.61,0,5.6,4.11a4,4,0,0,1-.25,1.45A4.11,4.11,0,0,1,136,27a4.63,4.63,0,0,1-1.09.92,5.85,5.85,0,0,1-1.42.61v0a2.19,2.19,0,0,1,.66.34,4.55,4.55,0,0,1,.62.56,7.76,7.76,0,0,1,.58.67C135.52,30.34,135.69,30.57,135.84,30.8Zm-3.23-4.5a2.13,2.13,0,0,0,.69-1.59c0-1.32-.8-2-2.42-2h-1.57v4.18h1.51a2.54,2.54,0,0,0,1.8-.61"/><polygon class="cls-8" points="125.82 35.23 125.53 35.47 125.57 20.43 125.85 20.18 125.82 35.23"/></g><g class="cls-7"><polygon class="cls-8" points="143.67 35.27 143.38 35.51 139.92 35.5 140.2 35.26 143.67 35.27"/><polygon class="cls-8" points="140.2 35.26 139.92 35.5 139.95 20.46 140.24 20.21 140.2 35.26"/><rect class="cls-11" x="134.43" y="26.01" width="15.05" height="3.46" transform="matrix(0, -1, 1, 0, 113.92, 169.63)"/></g><g class="cls-7"><polygon class="cls-8" points="157.79 28.57 157.51 28.82 157.52 20.49 157.81 20.25 157.79 28.57"/><g class="cls-7"><g class="cls-28"><g class="cls-7"><path class="cls-10" d="M157.83,30.63l-.29.25c0-.35,0-1,0-2.06l.28-.25c0,1,0,1.71,0,2.06"/></g></g></g><g class="cls-7"><g class="cls-29"><g class="cls-7"><path class="cls-10" d="M151.22,25.83l-.29.25c-.36-.56-.62-1-.77-1.25l.29-.25a14.19,14.19,0,0,0,.77,1.25"/></g></g></g><polygon class="cls-8" points="157.56 35.3 157.27 35.54 150.93 26.08 151.22 25.83 157.56 35.3"/><polygon class="cls-8" points="161.06 35.3 160.77 35.55 157.27 35.54 157.56 35.3 161.06 35.3"/><polygon class="cls-8" points="147.2 35.27 146.91 35.52 146.94 20.47 147.23 20.23 147.2 35.27"/><polygon class="cls-8" points="150.47 35.28 150.19 35.53 146.91 35.52 147.2 35.27 150.47 35.28"/><path class="cls-11" d="M161.09,20.26l0,15h-3.51l-6.33-9.47a14.19,14.19,0,0,1-.77-1.25c0,.53,0,1.34,0,2.43l0,8.27H147.2l0-15H151l6.1,9.18c.28.41.53.82.77,1.22,0-.35,0-1,0-2.06l0-8.32Z"/></g><g class="cls-7"><polygon class="cls-8" points="170.59 22.97 170.3 23.21 170.22 23.21 170.5 22.97 170.59 22.97"/><g class="cls-7"><g class="cls-30"><g class="cls-7"><path class="cls-10" d="M170.84,24.32l-.28.24a6,6,0,0,1-.26-1.35l.29-.24a6.65,6.65,0,0,0,.25,1.35"/></g></g></g><polygon class="cls-8" points="172.49 29.38 172.2 29.62 170.56 24.56 170.84 24.32 172.49 29.38"/><polygon class="cls-8" points="174.37 35.33 174.08 35.58 172.99 32.23 173.28 31.98 174.37 35.33"/><polygon class="cls-8" points="178.15 35.34 177.86 35.59 174.08 35.58 174.37 35.33 178.15 35.34"/><polygon class="cls-8" points="173.28 31.98 172.99 32.23 167.51 32.22 167.79 31.97 173.28 31.98"/><polygon class="cls-8" points="162.95 35.31 162.66 35.55 168.3 20.52 168.58 20.27 162.95 35.31"/><polygon class="cls-8" points="166.71 35.31 166.42 35.56 162.66 35.55 162.95 35.31 166.71 35.31"/><path class="cls-11" d="M172.7,20.28l5.45,15.06h-3.78L173.28,32h-5.49l-1.08,3.35H163l5.63-15Zm-4.15,9.09h3.94l-1.65-5.06a6.65,6.65,0,0,1-.25-1.35h-.09a4.94,4.94,0,0,1-.27,1.3l-1.68,5.1"/></g></svg>