<svg width="50" height="50" viewBox="0 0 50 50" fill="none" xmlns="http://www.w3.org/2000/svg">
<path d="M29.428 37.6266C26.8741 37.6266 24.3201 36.6545 22.3759 34.7102L12.1125 24.4469C10.2288 22.5632 9.19141 20.0586 9.19141 17.3947C9.19141 14.7309 10.229 12.2261 12.1125 10.3425L14.1807 8.27429C14.6002 7.85486 15.2804 7.85486 15.6999 8.27429L22.074 14.6483C22.2755 14.8499 22.3887 15.123 22.3887 15.4079C22.3887 15.6927 22.2755 15.966 22.074 16.1675L20.2222 18.0193C20.3725 19.0757 20.9439 21.7807 22.9929 23.8297C25.0409 25.8777 27.7444 26.4497 28.8033 26.6004L30.6551 24.7486C31.0747 24.3292 31.7547 24.3292 32.1743 24.7486L38.5483 31.1226C38.9679 31.5422 38.9679 32.2223 38.5483 32.6419L36.4802 34.71C34.5359 36.6545 31.982 37.6266 29.428 37.6266ZM14.9402 10.5531L13.6317 11.8616C12.1538 13.3395 11.3398 15.3045 11.3398 17.3946C11.3398 19.4846 12.1537 21.4497 13.6317 22.9276L23.895 33.191C26.946 36.2421 31.9103 36.2419 34.961 33.191L36.2695 31.8825L31.4147 27.0276L29.9588 28.4835C29.7441 28.698 29.4493 28.8111 29.1456 28.7968C28.9641 28.7877 24.6626 28.538 21.4736 25.349C18.2847 22.16 18.0351 17.8587 18.026 17.677C18.0108 17.3739 18.1246 17.0785 18.3393 16.8638L19.7952 15.408L14.9402 10.5531Z" fill="#42A5F5"/>
<path d="M33.9539 18.2711C33.4724 18.2711 33.0344 17.945 32.9125 17.4569C32.6993 16.603 32.2554 15.8204 31.629 15.1939C31.0024 14.5673 30.2199 14.1235 29.3661 13.9104C28.7906 13.7666 28.4404 13.1836 28.5839 12.6079C28.7277 12.0322 29.311 11.6825 29.8864 11.8258C31.1181 12.1332 32.246 12.7725 33.1481 13.6746C34.0501 14.5766 34.6894 15.7045 34.997 16.9363C35.1407 17.5119 34.7906 18.095 34.215 18.2388C34.1277 18.2606 34.0401 18.2711 33.9539 18.2711Z" fill="#42A5F5"/>
<path d="M39.7331 16.8223C39.2517 16.8223 38.8137 16.4962 38.6917 16.0079C38.2182 14.1111 37.2325 12.3731 35.8413 10.982C34.4502 9.59084 32.7122 8.6051 30.8153 8.13157C30.2396 7.98782 29.8895 7.40471 30.0332 6.82912C30.177 6.25334 30.7603 5.90373 31.3356 6.04699C33.6105 6.61496 35.6938 7.79612 37.3604 9.46272C39.027 11.1293 40.2081 13.2126 40.7762 15.4875C40.9198 16.0631 40.5697 16.6462 39.994 16.79C39.9068 16.8117 39.8192 16.8223 39.7331 16.8223Z" fill="#42A5F5"/>
<path d="M25 50C24.7251 50 24.4502 49.8951 24.2404 49.6854L18.242 43.6869H8.25586C3.70361 43.6869 0 39.9834 0 35.4312V8.25596C0 3.70361 3.70361 0 8.25586 0H41.744C46.2964 0 50 3.70361 50 8.25596V35.4311C50 39.9833 46.2964 43.6869 41.744 43.6869H31.758L25.7596 49.6854C25.5498 49.8951 25.2749 50 25 50ZM8.25586 2.14844C4.88828 2.14844 2.14844 4.88828 2.14844 8.25596V35.4311C2.14844 38.7986 4.88828 41.5385 8.25586 41.5385H18.6869C18.9719 41.5385 19.245 41.6517 19.4465 41.8531L25 47.4065L30.5534 41.8531C30.755 41.6518 31.0281 41.5385 31.313 41.5385H41.744C45.1117 41.5385 47.8516 38.7986 47.8516 35.4311V8.25596C47.8516 4.88828 45.1117 2.14844 41.744 2.14844H8.25586Z" fill="black"/>
</svg>
