<svg width="51" height="53" viewBox="0 0 51 53" fill="none" xmlns="http://www.w3.org/2000/svg">
<path d="M31.7267 5.25806C29.7084 5.25806 28.0664 6.90002 28.0664 8.91827C28.0664 10.9365 29.7084 12.5785 31.7267 12.5785C33.745 12.5785 35.3869 10.9365 35.3869 8.91827C35.3869 6.90002 33.745 5.25806 31.7267 5.25806ZM31.7267 10.3012C30.9641 10.3012 30.3438 9.68087 30.3438 8.91837C30.3438 8.15587 30.9641 7.5355 31.7267 7.5355C32.4892 7.5355 33.1096 8.15587 33.1096 8.91837C33.1096 9.68087 32.4892 10.3012 31.7267 10.3012Z" fill="#42A5F5"/>
<path d="M30.1525 40.8657C29.5237 40.8657 29.0138 41.3755 29.0138 42.0044C29.0138 42.5053 28.6063 42.9128 28.1054 42.9128C27.6045 42.9128 27.1969 42.5053 27.1969 42.0044V41.1721C27.1969 39.4155 25.7678 37.9863 24.0112 37.9863C22.2547 37.9863 20.8254 39.4155 20.8254 41.1721V41.9187C20.8254 41.9332 20.8271 41.9471 20.8276 41.9615C20.8271 41.9758 20.8254 41.9899 20.8254 42.0044C20.8254 42.5053 20.4179 42.9128 19.917 42.9128C19.2881 42.9128 18.7783 43.4227 18.7783 44.0515C18.7783 44.6804 19.2881 45.1902 19.917 45.1902C21.6737 45.1902 23.1028 43.7611 23.1028 42.0044C23.1028 41.9899 23.1011 41.9759 23.1006 41.9615C23.1011 41.9473 23.1028 41.9332 23.1028 41.9187V41.1721C23.1028 40.6712 23.5103 40.2637 24.0112 40.2637C24.5122 40.2637 24.9196 40.6712 24.9196 41.1721V42.0044C24.9196 43.7611 26.3487 45.1902 28.1054 45.1902C29.862 45.1902 31.2912 43.7611 31.2912 42.0044C31.2912 41.3755 30.7814 40.8657 30.1525 40.8657Z" fill="#42A5F5"/>
<path d="M48.5916 15.3129C46.8894 14.1212 44.5348 14.5365 43.3429 16.2389L42.616 17.2774C42.4189 17.2575 42.2181 17.2632 42.0177 17.2986C42.0022 17.3013 41.9874 17.3059 41.9721 17.309V3.20898C41.9721 1.43959 40.5325 0 38.7631 0H3.20898C1.43959 0 0 1.43959 0 3.20898V49.791C0 51.5604 1.43959 53 3.20898 53H38.7629C40.5323 53 41.9719 51.5604 41.9719 49.791V33.2838L48.6154 23.7938C48.9484 23.3181 49.0762 22.7412 48.9754 22.1694C48.94 21.969 48.8767 21.7784 48.7905 21.6001L49.5175 20.5616C50.7092 18.8592 50.2938 16.5046 48.5916 15.3129ZM39.532 32.7981L36.7247 36.8083L32.4549 33.8193L35.2623 29.8091L39.532 32.7981ZM34.5055 38.0346L34.086 38.6339C33.6143 39.3076 32.6825 39.4719 32.0091 39.0003C31.3354 38.5287 31.171 37.597 31.6427 36.9234L32.0622 36.3242L34.5055 38.0346ZM40.8381 30.9324L36.5683 27.9434L42.4207 19.5836L44.5555 21.0781L46.6903 22.5726L40.8381 30.9324ZM45.2085 17.545C45.6801 16.8714 46.6118 16.7069 47.2855 17.1784C47.9591 17.65 48.1236 18.5818 47.652 19.2554L47.0834 20.0675L44.64 18.357L45.2085 17.545ZM39.6945 49.791C39.6945 50.3047 39.2765 50.7227 38.7629 50.7227H3.20898C2.69534 50.7227 2.27734 50.3047 2.27734 49.791V3.20898C2.27734 2.69534 2.69534 2.27734 3.20898 2.27734H38.7629C39.2765 2.27734 39.6945 2.69534 39.6945 3.20898V19.4977C39.6945 19.5006 39.6949 19.5033 39.6949 19.5062L30.53 32.5981C30.0631 33.2651 30.025 34.1051 30.3554 34.7911L29.777 35.6174C28.8127 36.9947 28.901 38.7988 29.8713 40.0686L29.2132 41.0086C28.8526 41.5238 28.9779 42.2338 29.4931 42.5944C29.6918 42.7335 29.9195 42.8004 30.145 42.8004C30.504 42.8004 30.8573 42.631 31.0788 42.3146L31.7368 41.3747C32.1037 41.4895 32.4821 41.5461 32.8589 41.5461C34.0479 41.546 35.2193 40.9859 35.9515 39.9401L36.5292 39.1147C36.6008 39.122 36.6729 39.1269 36.7454 39.1269C36.8723 39.1269 37.0001 39.1159 37.1276 39.0933C37.6995 38.9924 38.1977 38.6749 38.5308 38.1992L39.6945 36.5369V49.791Z" fill="black"/>
<path d="M7.72266 10.0569H16.3164C16.9453 10.0569 17.4551 9.54707 17.4551 8.91821C17.4551 8.28936 16.9453 7.77954 16.3164 7.77954H7.72266C7.0938 7.77954 6.58398 8.28936 6.58398 8.91821C6.58398 9.54707 7.0938 10.0569 7.72266 10.0569Z" fill="black"/>
<path d="M7.72266 18.053H34.2485C34.8774 18.053 35.3872 17.5432 35.3872 16.9143C35.3872 16.2854 34.8774 15.7756 34.2485 15.7756H7.72266C7.0938 15.7756 6.58398 16.2854 6.58398 16.9143C6.58398 17.5432 7.0938 18.053 7.72266 18.053Z" fill="black"/>
<path d="M7.72266 22.6436H33.2175C33.8464 22.6436 34.3562 22.1337 34.3562 21.5049C34.3562 20.876 33.8464 20.3662 33.2175 20.3662H7.72266C7.0938 20.3662 6.58398 20.876 6.58398 21.5049C6.58398 22.1337 7.0938 22.6436 7.72266 22.6436Z" fill="black"/>
<path d="M27.6532 24.9568H7.72266C7.0938 24.9568 6.58398 25.4666 6.58398 26.0955C6.58398 26.7243 7.0938 27.2341 7.72266 27.2341H27.6532C28.2821 27.2341 28.7919 26.7243 28.7919 26.0955C28.7919 25.4666 28.2821 24.9568 27.6532 24.9568Z" fill="black"/>
<path d="M20.3642 29.5474H7.72266C7.0938 29.5474 6.58398 30.0572 6.58398 30.686C6.58398 31.3149 7.0938 31.8247 7.72266 31.8247H20.3642C20.993 31.8247 21.5029 31.3149 21.5029 30.686C21.5029 30.0572 20.993 29.5474 20.3642 29.5474Z" fill="black"/>
<path d="M12.3204 42.9128H7.72266C7.0938 42.9128 6.58398 43.4227 6.58398 44.0515C6.58398 44.6804 7.0938 45.1902 7.72266 45.1902H12.3204C12.9493 45.1902 13.4591 44.6804 13.4591 44.0515C13.4591 43.4227 12.9493 42.9128 12.3204 42.9128Z" fill="black"/>
</svg>
