<svg width="50" height="50" viewBox="0 0 50 50" fill="none" xmlns="http://www.w3.org/2000/svg">
<path d="M48.9258 0H1.07422C0.480957 0 0 0.480957 0 1.07422V7.03086C0 7.62412 0.480957 8.10508 1.07422 8.10508H2.97832V36.814C2.97832 37.4072 3.45928 37.8882 4.05254 37.8882H23.9258V47.8516H22.0217C20.5979 47.9044 20.599 49.9477 22.0217 50H27.9783C29.402 49.9472 29.401 47.9039 27.9783 47.8516H26.0742V37.8882H45.9475C46.5407 37.8882 47.0217 37.4072 47.0217 36.814V8.10508H48.9258C49.519 8.10508 50 7.62412 50 7.03086V1.07422C50 0.480957 49.519 0 48.9258 0ZM44.8732 35.7397H5.12676V8.10508H44.8732V35.7397ZM47.8516 5.95664H2.14844V2.14844H47.8516V5.95664Z" fill="black"/>
<path d="M13.0869 18.2314C12.812 18.2314 12.5371 18.1265 12.3274 17.9167L10.59 16.1794C10.1705 15.7599 10.1705 15.0798 10.59 14.6603C11.0095 14.2408 11.6897 14.2408 12.1092 14.6603L13.0869 15.638L16.1991 12.5258C16.6187 12.1063 17.2988 12.1063 17.7184 12.5258C18.1378 12.9454 18.1378 13.6254 17.7184 14.045L13.8465 17.9167C13.6368 18.1265 13.3618 18.2314 13.0869 18.2314Z" fill="#42A5F5"/>
<path d="M13.0869 30.7402C12.812 30.7402 12.5371 30.6353 12.3274 30.4255L10.59 28.6882C10.1705 28.2687 10.1705 27.5886 10.59 27.1691C11.0095 26.7496 11.6897 26.7496 12.1092 27.1691L13.0869 28.1468L16.1991 25.0346C16.6187 24.6151 17.2988 24.6151 17.7184 25.0346C18.1378 25.4542 18.1378 26.1342 17.7184 26.5538L13.8465 30.4255C13.6368 30.6353 13.3618 30.7402 13.0869 30.7402Z" fill="#42A5F5"/>
<path d="M13.0869 24.3864C12.812 24.3864 12.5371 24.2815 12.3274 24.0718L10.59 22.3345C10.1705 21.9149 10.1705 21.2348 10.59 20.8153C11.0095 20.3958 11.6897 20.3958 12.1092 20.8153L13.0869 21.7931L16.1991 18.6809C16.6187 18.2613 17.2988 18.2613 17.7184 18.6809C18.1378 19.1004 18.1378 19.7805 17.7184 20.2L13.8465 24.0718C13.6368 24.2815 13.3618 24.3864 13.0869 24.3864Z" fill="#42A5F5"/>
<path d="M39.3955 16.5435H24.5039C23.0802 16.4906 23.0813 14.4474 24.5039 14.395H39.3955C40.8193 14.4479 40.8182 16.4912 39.3955 16.5435Z" fill="black"/>
<path d="M39.3955 28.6189H24.5039C23.0802 28.5661 23.0813 26.5228 24.5039 26.4705H39.3955C40.8193 26.5233 40.8182 28.5666 39.3955 28.6189Z" fill="black"/>
<path d="M39.3955 22.5996H24.5039C23.0802 22.5468 23.0813 20.5035 24.5039 20.4512H39.3955C40.8193 20.504 40.8182 22.5473 39.3955 22.5996Z" fill="#42A5F5"/>
</svg>
