<svg width="51" height="51" viewBox="0 0 51 51" fill="none" xmlns="http://www.w3.org/2000/svg">
<path d="M31.3398 24.8791H19.2393C18.6341 24.8791 18.1436 24.3886 18.1436 23.7834C18.1436 23.1783 18.6341 22.6877 19.2393 22.6877H31.3398C31.9449 22.6877 32.4355 23.1783 32.4355 23.7834C32.4355 24.3886 31.9449 24.8791 31.3398 24.8791Z" fill="#42A5F5"/>
<path d="M31.3398 18.8035H19.2393C18.6341 18.8035 18.1436 18.3129 18.1436 17.7078C18.1436 17.1026 18.6341 16.6121 19.2393 16.6121H31.3398C31.9449 16.6121 32.4355 17.1026 32.4355 17.7078C32.4355 18.3129 31.9449 18.8035 31.3398 18.8035Z" fill="#42A5F5"/>
<path d="M50.5786 19.1598C50.5792 18.8185 50.4122 18.4856 50.1384 18.2819L41.1311 11.5566V9.21777C41.1311 8.61265 40.6405 8.12207 40.0354 8.12207H36.5312L25.9449 0.217732C25.5561 -0.0725275 25.0227 -0.0726271 24.6338 0.217732L14.0474 8.12207H10.5432C9.93809 8.12207 9.44752 8.61265 9.44752 9.21777V11.5566L0.440306 18.2819C0.166582 18.4856 -0.000461658 18.8185 0.000135994 19.1598V49.9039C-0.00962565 50.4919 0.507542 51.0102 1.09583 50.9996H49.4829C50.0713 51.0102 50.5883 50.4919 50.5786 49.9039V19.1598ZM2.19153 21.3818L16.0253 31.9978L2.19153 47.0874V21.3818ZM17.7704 33.3371L22.5699 37.0201C23.3706 37.6346 24.3298 37.9417 25.2894 37.9417C26.2487 37.9417 27.2083 37.6345 28.0089 37.0201L32.8083 33.3371L46.9919 48.8082H3.58684L17.7704 33.3371ZM34.5535 31.9978L48.3872 21.3818V47.0874L34.5535 31.9978ZM47.6675 19.1718L41.1311 24.1877V14.2913L47.6675 19.1718ZM25.2894 2.46311L32.8684 8.12207H17.7102L25.2894 2.46311ZM38.9397 10.3135V25.8694L26.6747 35.2817C25.8589 35.9076 24.7197 35.9076 23.904 35.2817L11.6389 25.8694V10.3135H38.9397ZM9.44752 24.1877L2.9112 19.1718L9.44761 14.2913L9.44752 24.1877Z" fill="black"/>
</svg>
