<svg width="50" height="56" viewBox="0 0 50 56" fill="none" xmlns="http://www.w3.org/2000/svg">
<path d="M24.6112 49.0041C24.2144 49.0041 23.8177 48.9019 23.4637 48.6975L7.21963 39.319C6.51185 38.9104 6.07227 38.1489 6.07227 37.3317V17.9444C6.07227 17.5145 6.30163 17.1172 6.67384 16.9024L23.4638 7.20869C24.1716 6.80028 25.0508 6.80017 25.7584 7.20869L42.5484 16.9024C42.9206 17.1174 43.15 17.5146 43.15 17.9444V37.3317C43.15 38.149 42.7103 38.9105 42.0027 39.319L25.7584 48.6975C25.4047 48.9018 25.0079 49.0041 24.6112 49.0041ZM8.47855 37.2673L24.6111 46.5814L40.7437 37.2673V18.639L24.6111 9.32481L8.47855 18.639V37.2673Z" fill="#42A5F5"/>
<path d="M49.0638 14.6773C49.0533 14.6148 49.0367 14.5528 49.0158 14.4913C48.8499 13.9375 48.4787 13.4555 47.9658 13.1593L25.704 0.306433C24.9963 -0.10209 24.117 -0.102199 23.4093 0.306433L1.14736 13.1594C0.439585 13.568 0 14.3295 0 15.1467V40.8524C0 41.6697 0.439695 42.4312 1.14736 42.8397L23.4091 55.6925C23.7465 55.8872 24.1228 55.9881 24.5011 55.9972C24.5195 55.998 24.5378 56 24.5565 56C24.5752 56 24.5935 55.998 24.6121 55.9972C24.9902 55.9881 25.3666 55.8872 25.704 55.6925L47.9658 42.8397C48.6735 42.431 49.1131 41.6696 49.1131 40.8524V15.1467C49.1131 14.9873 49.096 14.8302 49.0638 14.6773ZM24.5566 2.42266L45.7192 14.6409L24.5586 25.6145L3.4702 14.5968L24.5566 2.42266ZM2.40629 16.7559L23.3535 27.6997V52.8819L2.40629 40.788V16.7559ZM25.7598 52.8818V27.7021L46.707 16.8393V40.788L25.7598 52.8818Z" fill="black"/>
</svg>
