<svg width="54" height="54" viewBox="0 0 54 54" fill="none" xmlns="http://www.w3.org/2000/svg">
<path d="M27 54C19.8167 54 13.0443 51.1837 7.9303 46.0697C2.81633 40.9557 0 34.1833 0 27C0 19.8167 2.81633 13.0443 7.9303 7.9303C13.0443 2.81633 19.8167 0 27 0C34.1833 0 40.9557 2.81633 46.0697 7.9303C51.1836 13.0443 54 19.8167 54 27C54 34.1833 51.1836 40.9557 46.0697 46.0697C40.9557 51.1837 34.1833 54 27 54ZM27 2.32031C13.3916 2.32031 2.32031 13.3916 2.32031 27C2.32031 40.6084 13.3916 51.6797 27 51.6797C40.6084 51.6797 51.6797 40.6084 51.6797 27C51.6797 13.3916 40.6084 2.32031 27 2.32031Z" fill="black"/>
<path d="M26.9997 47.4597C15.7182 47.4597 6.54004 38.2816 6.54004 27.0001C6.54004 15.7186 15.7182 6.54053 26.9997 6.54053C38.2812 6.54053 47.4594 15.7186 47.4594 27.0001C47.4594 38.2816 38.2812 47.4597 26.9997 47.4597ZM26.9997 8.86084C16.9976 8.86084 8.86035 16.9981 8.86035 27.0001C8.86035 37.0021 16.9976 45.1393 26.9997 45.1393C37.0018 45.1393 45.1391 37.0021 45.1391 27.0001C45.1391 16.9981 37.0017 8.86084 26.9997 8.86084Z" fill="black"/>
<path d="M32.2446 27.4687C31.1118 26.6192 29.6912 26.0762 28.1598 25.8932V18.5888C30.4819 18.9676 32.2727 20.4484 32.2727 22.1589C32.2727 22.7996 32.7921 23.3191 33.4329 23.3191C34.0736 23.3191 34.593 22.7996 34.593 22.1589C34.593 20.496 33.7591 18.9548 32.2446 17.8191C31.1118 16.9695 29.6912 16.4266 28.1598 16.2436V14.1174C28.1598 13.4767 27.6404 12.9573 26.9997 12.9573C26.359 12.9573 25.8395 13.4767 25.8395 14.1174V16.2436C24.3081 16.4266 22.8875 16.9695 21.7546 17.8191C20.2403 18.9549 19.4062 20.4961 19.4062 22.1589C19.4062 23.8217 20.2402 25.363 21.7546 26.4987C22.8875 27.3483 24.308 27.8912 25.8395 28.0742V35.3787C23.5174 34.9998 21.7267 33.519 21.7267 31.8085C21.7267 31.1678 21.2072 30.6484 20.5665 30.6484C19.9258 30.6484 19.4064 31.1678 19.4064 31.8085C19.4064 33.4714 20.2403 35.0126 21.7547 36.1483C22.8876 36.9979 24.3081 37.5409 25.8396 37.7239V39.8663C25.8396 40.507 26.3591 41.0264 26.9998 41.0264C27.6405 41.0264 28.1599 40.507 28.1599 39.8663V37.7239C29.6914 37.5409 31.112 36.9979 32.2447 36.1483C33.7591 35.0126 34.5931 33.4713 34.5931 31.8085C34.593 30.1457 33.7591 28.6045 32.2446 27.4687ZM21.7267 22.1589C21.7267 20.4485 23.5174 18.9676 25.8395 18.5888V25.7289C23.5174 25.3501 21.7267 23.8693 21.7267 22.1589ZM28.1598 35.3787V28.2385C30.4819 28.6174 32.2727 30.0982 32.2727 31.8087C32.2727 33.519 30.4819 34.9998 28.1598 35.3787Z" fill="#42A5F5"/>
</svg>
