<svg width="43" height="43" viewBox="0 0 43 43" fill="none" xmlns="http://www.w3.org/2000/svg">
<path d="M35.308 42.2658C26.132 43.2447 16.8778 43.2447 7.70175 42.2658C5.91985 42.0776 4.25628 41.2843 2.98839 40.0182C1.7205 38.7521 0.924899 37.0897 0.734227 35.308C-0.244742 26.132 -0.244742 16.8778 0.734227 7.70175C0.922398 5.91985 1.71566 4.25628 2.98178 2.98839C4.24789 1.7205 5.91034 0.924899 7.69198 0.734227C16.868 -0.244742 26.1222 -0.244742 35.2982 0.734227C37.0801 0.922398 38.7437 1.71566 40.0116 2.98178C41.2795 4.24789 42.0751 5.91034 42.2658 7.69198C43.2447 16.868 43.2447 26.1222 42.2658 35.2982C42.0776 37.0801 41.2843 38.7437 40.0182 40.0116C38.7521 41.2795 37.0897 42.0751 35.308 42.2658Z" fill="#0B66C3"/>
<path d="M15.4902 11.7278C15.4902 12.4526 15.2753 13.1611 14.8726 13.7637C14.47 14.3663 13.8977 14.836 13.228 15.1134C12.5584 15.3907 11.8216 15.4633 11.1108 15.3219C10.3999 15.1805 9.74695 14.8315 9.23446 14.319C8.72196 13.8065 8.37295 13.1536 8.23155 12.4427C8.09015 11.7318 8.16272 10.995 8.44008 10.3254C8.71744 9.65581 9.18714 9.08349 9.78977 8.68082C10.3924 8.27815 11.1009 8.06323 11.8257 8.06323C12.7976 8.06323 13.7297 8.44932 14.4169 9.13655C15.1041 9.82379 15.4902 10.7559 15.4902 11.7278Z" fill="white"/>
<path d="M14.6591 17.8353V34.0253C14.6597 34.1447 14.6367 34.2631 14.5915 34.3736C14.5462 34.4842 14.4795 34.5847 14.3953 34.6694C14.3111 34.754 14.211 34.8212 14.1007 34.8671C13.9904 34.9129 13.8721 34.9365 13.7527 34.9365H9.89026C9.77082 34.9369 9.6525 34.9136 9.54209 34.868C9.43168 34.8225 9.33137 34.7555 9.24691 34.6711C9.16246 34.5866 9.09553 34.4863 9.04997 34.3759C9.00441 34.2655 8.98113 34.1472 8.98145 34.0277V17.8353C8.98145 17.5943 9.0772 17.3631 9.24763 17.1927C9.41807 17.0223 9.64923 16.9265 9.89026 16.9265H13.7527C13.9933 16.9272 14.2238 17.0232 14.3937 17.1936C14.5636 17.3639 14.6591 17.5947 14.6591 17.8353Z" fill="white"/>
<path d="M34.8491 26.2635V34.1007C34.8495 34.2105 34.8281 34.3193 34.7862 34.4208C34.7443 34.5224 34.6828 34.6146 34.6051 34.6922C34.5275 34.7699 34.4353 34.8314 34.3337 34.8733C34.2322 34.9152 34.1234 34.9366 34.0136 34.9362H29.8605C29.7507 34.9366 29.6419 34.9152 29.5403 34.8733C29.4388 34.8314 29.3466 34.7699 29.269 34.6922C29.1913 34.6146 29.1298 34.5224 29.0879 34.4208C29.046 34.3193 29.0246 34.2105 29.025 34.1007V26.5053C29.025 25.3718 29.3572 21.5411 26.0616 21.5411C23.5086 21.5411 22.9882 24.1625 22.8856 25.34V34.1007C22.8856 34.3202 22.7993 34.5309 22.6452 34.6872C22.4912 34.8436 22.2818 34.933 22.0623 34.9362H18.0509C17.9412 34.9362 17.8327 34.9146 17.7315 34.8726C17.6302 34.8306 17.5383 34.769 17.4609 34.6914C17.3835 34.6138 17.3222 34.5216 17.2805 34.4203C17.2388 34.3189 17.2175 34.2103 17.2178 34.1007V17.7642C17.2175 17.6546 17.2388 17.546 17.2805 17.4446C17.3222 17.3433 17.3835 17.2511 17.4609 17.1735C17.5383 17.0959 17.6302 17.0343 17.7315 16.9923C17.8327 16.9503 17.9412 16.9286 18.0509 16.9286H22.0623C22.2839 16.9286 22.4964 17.0167 22.6531 17.1734C22.8098 17.3301 22.8978 17.5426 22.8978 17.7642V19.1762C23.8457 17.7544 25.2505 16.6575 28.2481 16.6575C34.8882 16.6575 34.8491 22.8579 34.8491 26.2635Z" fill="white"/>
</svg>
