<svg width="52" height="52" viewBox="0 0 52 52" fill="none" xmlns="http://www.w3.org/2000/svg">
<path d="M12.5601 27.6843H9.26823C7.85601 27.6843 6.70703 28.8333 6.70703 30.2455V33.5373C6.70703 34.9496 7.85601 36.0985 9.26823 36.0985H12.56C13.9722 36.0985 15.1212 34.9495 15.1212 33.5373V30.2456C15.1213 28.8333 13.9723 27.6843 12.5601 27.6843ZM12.8869 33.5374C12.8869 33.7176 12.7402 33.8642 12.5601 33.8642H9.26823C9.08806 33.8642 8.94141 33.7175 8.94141 33.5374V30.2456C8.94141 30.0654 9.08806 29.9188 9.26823 29.9188H12.56C12.7401 29.9188 12.8868 30.0655 12.8868 30.2456L12.8869 33.5374Z" fill="#42A5F5"/>
<path d="M24.7055 27.6843H21.4137C20.0015 27.6843 18.8525 28.8333 18.8525 30.2455V33.5373C18.8525 34.9496 20.0015 36.0985 21.4137 36.0985H24.7055C26.1177 36.0985 27.2667 34.9495 27.2667 33.5373V30.2456C27.2667 28.8333 26.1177 27.6843 24.7055 27.6843ZM25.0323 33.5374C25.0323 33.7176 24.8857 33.8642 24.7055 33.8642H21.4137C21.2336 33.8642 21.0869 33.7175 21.0869 33.5374V30.2456C21.0869 30.0654 21.2336 29.9188 21.4137 29.9188H24.7055C24.8857 29.9188 25.0323 30.0655 25.0323 30.2456V33.5374Z" fill="#42A5F5"/>
<path d="M12.5601 38.3425H9.26823C7.85601 38.3425 6.70703 39.4915 6.70703 40.9037V44.1955C6.70703 45.6078 7.85601 46.7567 9.26823 46.7567H12.56C13.9722 46.7567 15.1212 45.6077 15.1212 44.1955V40.9037C15.1213 39.4914 13.9723 38.3425 12.5601 38.3425ZM12.8869 44.1955C12.8869 44.3757 12.7402 44.5223 12.5601 44.5223H9.26823C9.08806 44.5223 8.94141 44.3756 8.94141 44.1955V40.9037C8.94141 40.7235 9.08806 40.5769 9.26823 40.5769H12.56C12.7401 40.5769 12.8868 40.7236 12.8868 40.9037L12.8869 44.1955Z" fill="#42A5F5"/>
<path d="M24.7055 38.3425H21.4137C20.0015 38.3425 18.8525 39.4915 18.8525 40.9037V44.1955C18.8525 45.6078 20.0015 46.7567 21.4137 46.7567H24.7055C26.1177 46.7567 27.2667 45.6077 27.2667 44.1955V40.9037C27.2667 39.4914 26.1177 38.3425 24.7055 38.3425ZM25.0323 44.1955C25.0323 44.3757 24.8857 44.5223 24.7055 44.5223H21.4137C21.2336 44.5223 21.0869 44.3756 21.0869 44.1955V40.9037C21.0869 40.7235 21.2336 40.5769 21.4137 40.5769H24.7055C24.8857 40.5769 25.0323 40.7236 25.0323 40.9037V44.1955Z" fill="#42A5F5"/>
<path d="M12.5601 16.7607H9.26823C7.85601 16.7607 6.70703 17.9097 6.70703 19.3219V22.6137C6.70703 24.026 7.85601 25.1749 9.26823 25.1749H12.56C13.9722 25.1749 15.1212 24.0259 15.1212 22.6137V19.3219C15.1213 17.9097 13.9723 16.7607 12.5601 16.7607ZM12.8869 22.6137C12.8869 22.794 12.7402 22.9405 12.5601 22.9405H9.26823C9.08806 22.9405 8.94141 22.7939 8.94141 22.6137V19.3219C8.94141 19.1417 9.08806 18.9951 9.26823 18.9951H12.56C12.7401 18.9951 12.8868 19.1418 12.8868 19.3219L12.8869 22.6137Z" fill="#42A5F5"/>
<path d="M24.7055 16.7607H21.4137C20.0015 16.7607 18.8525 17.9097 18.8525 19.3219V22.6137C18.8525 24.026 20.0015 25.1749 21.4137 25.1749H24.7055C26.1177 25.1749 27.2667 24.0259 27.2667 22.6137V19.3219C27.2667 17.9097 26.1177 16.7607 24.7055 16.7607ZM25.0323 22.6137C25.0323 22.794 24.8857 22.9405 24.7055 22.9405H21.4137C21.2336 22.9405 21.0869 22.7939 21.0869 22.6137V19.3219C21.0869 19.1417 21.2336 18.9951 21.4137 18.9951H24.7055C24.8857 18.9951 25.0323 19.1418 25.0323 19.3219V22.6137Z" fill="#42A5F5"/>
<path d="M36.8511 16.7607H33.5592C32.147 16.7607 30.998 17.9097 30.998 19.3219V22.6137C30.998 24.026 32.1469 25.1749 33.5592 25.1749H36.8511C38.2633 25.1749 39.4123 24.0259 39.4123 22.6137V19.3219C39.4123 17.9097 38.2633 16.7607 36.8511 16.7607ZM37.1779 22.6137C37.1779 22.794 37.0313 22.9405 36.8511 22.9405H33.5592C33.3791 22.9405 33.2324 22.7939 33.2324 22.6137V19.3219C33.2324 19.1417 33.379 18.9951 33.5592 18.9951H36.8511C37.0313 18.9951 37.1779 19.1418 37.1779 19.3219V22.6137Z" fill="#42A5F5"/>
<path d="M52 40.1375C52 35.8978 49.6159 32.2048 46.1182 30.3274V9.3337C46.1182 6.4867 43.802 4.17056 40.9551 4.17056H40.2854V3.26696C40.2854 1.46555 38.8198 0 37.0184 0H37.0041C35.2027 0 33.7371 1.46555 33.7371 3.26696V4.17056H12.3811V3.26696C12.3811 1.46555 10.9155 0 9.11412 0H9.0998C7.29838 0 5.83284 1.46555 5.83284 3.26696V4.17056H5.16313C2.31623 4.17046 0 6.4867 0 9.3337V46.1003C0 48.9473 2.31623 51.2635 5.16313 51.2635C5.16313 51.2635 41.2902 51.2592 41.3377 51.2531C47.2584 51.0091 52 46.117 52 40.1375ZM35.9716 3.26696C35.9716 2.6976 36.4348 2.23438 37.0042 2.23438H37.0185C37.5879 2.23438 38.0511 2.6976 38.0511 3.26696V7.01076C38.0511 7.58012 37.5879 8.04334 37.0185 8.04334H37.0042C36.4348 8.04334 35.9716 7.58012 35.9716 7.01076V3.26696ZM8.06731 3.26696C8.06731 2.6976 8.53054 2.23438 9.0999 2.23438H9.11422C9.68358 2.23438 10.1468 2.6976 10.1468 3.26696V7.01076C10.1468 7.58012 9.68358 8.04334 9.11422 8.04334H9.0999C8.53054 8.04334 8.06731 7.58012 8.06731 7.01076V3.26696ZM2.23438 9.3337C2.23438 7.71875 3.54829 6.40494 5.16313 6.40494H5.83284V7.01076C5.83284 8.81217 7.29838 10.2777 9.0998 10.2777H9.11412C10.9155 10.2777 12.3811 8.81217 12.3811 7.01076V6.40494H33.7372V7.01076C33.7372 8.81217 35.2028 10.2777 37.0042 10.2777H37.0185C38.8199 10.2777 40.2855 8.81217 40.2855 7.01076V6.40494H40.9552C42.5701 6.40494 43.8839 7.71875 43.8839 9.3337V12.2543H2.23438V9.3337ZM5.16313 49.0291C3.54829 49.0291 2.23438 47.7152 2.23438 46.1002V14.4886H43.8838V29.4254C42.9261 29.156 41.9167 29.0114 40.8739 29.0114C34.739 29.0114 29.748 34.0025 29.748 40.1374C29.748 43.7675 31.4958 46.9969 34.1938 49.029H5.16313V49.0291ZM40.874 49.0291C35.9712 49.0291 31.9824 45.0403 31.9824 40.1375C31.9824 35.2347 35.9712 31.2459 40.874 31.2459C45.7769 31.2459 49.7656 35.2346 49.7656 40.1375C49.7656 45.0403 45.7769 49.0291 40.874 49.0291Z" fill="black"/>
<path d="M43.5773 39.4703H41.9912V35.1809C41.9912 34.5639 41.491 34.0637 40.874 34.0637C40.257 34.0637 39.7568 34.5639 39.7568 35.1809V40.5875C39.7568 41.2045 40.257 41.7047 40.874 41.7047C40.8893 41.7047 43.5773 41.7047 43.5773 41.7047C44.1943 41.7047 44.6945 41.2045 44.6945 40.5875C44.6945 39.9705 44.1944 39.4703 43.5773 39.4703Z" fill="black"/>
</svg>
