<svg width="53" height="47" viewBox="0 0 53 47" fill="none" xmlns="http://www.w3.org/2000/svg">
<path d="M19.142 7.1556V3.14203C19.142 2.64234 19.5486 2.23574 20.0484 2.23574H31.9841C32.4839 2.23574 32.8905 2.64234 32.8905 3.14203V7.1556H35.1262V3.14203C35.1262 1.40953 33.7167 0 31.9841 0H20.0484C18.3158 0 16.9062 1.40953 16.9062 3.14203V7.1556H19.142Z" fill="#42A5F5"/>
<path d="M46.8655 6.27856H5.16639C2.31765 6.27856 0 8.59611 0 11.4449V41.7717C0 44.6204 2.31765 46.938 5.16639 46.938H46.8655C49.7142 46.938 52.0318 44.6203 52.0318 41.7717V11.4449C52.0318 8.59611 49.7142 6.27856 46.8655 6.27856ZM2.23574 11.4449C2.23574 9.82892 3.55046 8.51431 5.16639 8.51431H46.8655C48.4814 8.51431 49.7961 9.82902 49.7961 11.4449V18.0726C49.7961 21.5704 46.9504 24.4161 43.4526 24.4161H32.7567C32.7256 22.8148 31.4143 21.5216 29.8058 21.5216H22.2261C20.6175 21.5216 19.3061 22.8148 19.2751 24.4161H8.57925C5.08144 24.4161 2.23574 21.5704 2.23574 18.0726V11.4449ZM30.5225 24.474V26.6403C30.5225 27.0355 30.201 27.3569 29.8058 27.3569H22.2261C21.8309 27.3569 21.5094 27.0354 21.5094 26.6403V24.474C21.5094 24.0787 21.8309 23.7573 22.2261 23.7573H29.8058C30.201 23.7573 30.5225 24.0787 30.5225 24.474ZM49.7961 41.7717C49.7961 43.3876 48.4814 44.7022 46.8655 44.7022H5.16639C3.55046 44.7022 2.23574 43.3876 2.23574 41.7717V23.8427C3.80605 25.5675 6.06841 26.6519 8.57925 26.6519H19.2739C19.2802 28.2745 20.602 29.5927 22.2261 29.5927H29.8058C31.4299 29.5927 32.7516 28.2745 32.7579 26.6519H43.4526C45.9634 26.6519 48.2258 25.5675 49.7961 23.8427V41.7717Z" fill="black"/>
</svg>
