<svg width="66" height="58" viewBox="0 0 66 58" fill="none" xmlns="http://www.w3.org/2000/svg">
<path d="M57.6198 35.6082H49.4118L39.0632 25.2596C38.5114 24.7079 37.6173 24.7079 37.0655 25.2596L33.7613 28.5638C32.9451 29.38 31.8599 29.8295 30.7055 29.8295C29.5512 29.8295 28.466 29.3801 27.6497 28.5638C27.5475 28.4617 27.5475 28.2954 27.6497 28.1932L34.3111 21.5317C35.4716 20.3712 37.0145 19.7321 38.6556 19.7321C40.8057 19.6879 42.9481 20.2464 44.861 21.2143C45.0472 21.3007 45.2501 21.3455 45.4555 21.3455H57.6198C58.3999 21.3455 59.0323 20.7131 59.0323 19.933C59.0323 19.1528 58.3999 18.5204 57.6198 18.5204H45.7673C43.5685 17.4433 41.1056 16.8739 38.6556 16.9071C36.4929 16.9071 34.4485 17.6697 32.8248 19.0637C31.1339 17.6672 29.0299 16.9071 26.8087 16.9071C24.4279 16.9033 22.0402 17.4752 19.9035 18.5204H8.25252C7.47241 18.5204 6.83997 19.1528 6.83997 19.933C6.83997 20.7131 7.47241 21.3455 8.25252 21.3455H20.2154C20.4209 21.3455 20.6238 21.3007 20.8101 21.2143C22.6614 20.2803 24.7281 19.7189 26.8088 19.7321C28.2641 19.7321 29.6477 20.1977 30.7904 21.0571L25.6521 26.1954C25.0689 26.7786 24.7479 27.5538 24.7479 28.3785C24.7479 29.2031 25.0689 29.9784 25.6521 30.5615C27.002 31.9114 28.7967 32.6546 30.7057 32.6546C32.6147 32.6546 34.4093 31.9113 35.7591 30.5615L38.0645 28.2561L50.0899 40.2813C50.6731 40.8645 50.6731 41.8138 50.0899 42.397C49.8073 42.6797 49.4316 42.8353 49.032 42.8353C48.6326 42.8353 48.257 42.6798 47.9745 42.3974L47.9742 42.397L45.8474 40.2702C45.2957 39.7186 44.4013 39.7187 43.8497 40.2702C43.298 40.8218 43.298 41.7162 43.8497 42.2678L45.9765 44.3946L45.9768 44.3949C46.5596 44.9783 46.5596 45.9271 45.9765 46.5102C45.3931 47.0936 44.444 47.0936 43.8606 46.5102C43.8604 46.51 43.8602 46.5099 43.86 46.5096L41.734 44.3834C41.1823 43.8318 40.2879 43.8318 39.7362 44.3834C39.1846 44.9351 39.1846 45.8295 39.7362 46.3811L41.8624 48.5072C41.8626 48.5075 41.8628 48.5076 41.863 48.5078C42.1457 48.7903 42.3012 49.1661 42.3012 49.5657C42.3012 49.9653 42.1457 50.3411 41.863 50.6236C41.5805 50.9061 41.2048 51.0617 40.8053 51.0617C40.4057 51.0617 40.0299 50.9061 39.7474 50.6235C39.7472 50.6232 39.747 50.6231 39.7468 50.6228L37.6208 48.4967C37.6196 48.4955 37.6183 48.4945 37.6172 48.4933C37.4619 47.6357 37.0516 46.846 36.4223 46.2167C35.6537 45.448 34.6464 45.005 33.5676 44.9559C33.5193 43.9179 33.0998 42.8941 32.3089 42.1032C31.5402 41.3346 30.5331 40.8915 29.4543 40.8424C29.406 39.8045 28.9865 38.7808 28.1956 37.9899C27.4047 37.199 26.3808 36.7794 25.3429 36.7311C25.2938 35.6523 24.8506 34.6451 24.0821 33.8766C23.266 33.0604 22.1808 32.611 21.0266 32.611C19.8724 32.611 18.7873 33.0604 17.9711 33.8766L16.2399 35.6079H8.2524C7.47228 35.6079 6.83984 36.2403 6.83984 37.0205C6.83984 37.8006 7.47228 38.433 8.2524 38.433H13.4214C12.6958 39.2298 12.2983 40.2538 12.2983 41.3389C12.2983 42.4932 12.7478 43.5783 13.564 44.3944C14.3325 45.163 15.3398 45.6062 16.4186 45.6551C16.4669 46.6931 16.8864 47.7168 17.6773 48.5077C18.446 49.2763 19.4532 49.7194 20.532 49.7685C20.5802 50.8064 20.9998 51.8302 21.7907 52.6211C22.5594 53.3896 23.5665 53.8328 24.6453 53.8818C24.6936 54.9198 25.1131 55.9436 25.9041 56.7345C26.7465 57.5769 27.8531 57.9981 28.9596 57.9981C30.0662 57.9981 31.1727 57.5769 32.0152 56.7345L32.8257 55.9241L33.6361 56.7345C34.4523 57.5506 35.5375 58.0001 36.6917 58.0001C37.8459 58.0001 38.931 57.5506 39.7472 56.7345C40.5152 55.9665 40.9586 54.96 41.008 53.8821C42.0862 53.8325 43.0923 53.3892 43.8605 52.6211C44.6291 51.8525 45.0725 50.8452 45.1215 49.7666C46.1594 49.7181 47.1832 49.2985 47.974 48.5076C48.7646 47.7168 49.1843 46.6932 49.2328 45.6554C50.3115 45.6063 51.3188 45.1629 52.0873 44.3942C53.7231 42.7584 53.7703 40.1267 52.2296 38.4329H57.6198C58.3999 38.4329 59.0323 37.8004 59.0323 37.0203C59.0323 36.2402 58.3999 35.6082 57.6198 35.6082ZM15.1233 41.3391C15.1233 40.9395 15.2789 40.5638 15.5616 40.2813L19.9684 35.8745C20.2509 35.5919 20.6266 35.4362 21.0262 35.4362C21.4258 35.4362 21.8016 35.5919 22.0841 35.8745C22.3666 36.157 22.5222 36.5327 22.5222 36.9324C22.5222 37.332 22.3666 37.7077 22.084 37.9902L17.6772 42.397C17.3947 42.6795 17.0189 42.8352 16.6193 42.8352C16.2197 42.8352 15.844 42.6795 15.5614 42.3969C15.2789 42.1145 15.1233 41.7388 15.1233 41.3391ZM19.6745 44.3951L19.6749 44.3947L24.0817 39.988C24.665 39.4046 25.6143 39.4046 26.1974 39.988C26.7807 40.5712 26.7807 41.5203 26.1974 42.1037L21.7907 46.5105C21.5082 46.793 21.1324 46.9486 20.7328 46.9486C20.3332 46.9486 19.9574 46.793 19.6749 46.5104C19.0918 45.9272 19.0917 44.9785 19.6745 44.3951ZM23.7879 48.5085L23.7883 48.5081L28.195 44.1013C28.4776 43.8188 28.8533 43.6632 29.2529 43.6632C29.6525 43.6632 30.0283 43.8188 30.3108 44.1013C30.8941 44.6847 30.8941 45.6338 30.3108 46.2171L25.904 50.6238C25.6215 50.9064 25.2458 51.062 24.8461 51.062C24.4465 51.062 24.0708 50.9064 23.7883 50.6237C23.2051 50.0407 23.205 49.0919 23.7879 48.5085ZM27.9018 54.7373C27.3186 54.1541 27.3185 53.2053 27.9014 52.6218L27.9018 52.6214L32.3085 48.2147C32.591 47.932 32.9668 47.7765 33.3664 47.7765C33.7659 47.7765 34.1416 47.932 34.4241 48.2147C34.7068 48.4972 34.8623 48.8729 34.8623 49.2725C34.8623 49.6722 34.7068 50.0479 34.4241 50.3304L30.0175 54.7372C29.4341 55.3204 28.485 55.3206 27.9018 54.7373ZM37.7494 54.7373C37.4669 55.0198 37.0912 55.1755 36.6917 55.1755C36.2921 55.1755 35.9163 55.0198 35.6338 54.7373L34.8233 53.9268L36.4219 52.328C36.597 52.1529 36.7542 51.9646 36.8948 51.7667L37.7489 52.6208C37.7492 52.6211 37.7493 52.6212 37.7495 52.6214C38.3328 53.2048 38.3328 54.1539 37.7494 54.7373Z" fill="black"/>
<path d="M6.54974 16.4053H2.69669C1.20966 16.4053 0 17.6149 0 19.102V37.8515C0 39.3386 1.20966 40.5482 2.69669 40.5482H6.54974C8.03677 40.5482 9.24643 39.3386 9.24643 37.8515V19.102C9.24643 17.6149 8.03665 16.4053 6.54974 16.4053ZM6.42133 37.723H2.8251V19.2304H6.42133V37.723Z" fill="#42A5F5"/>
<path d="M63.0507 16.4053H59.1977C57.7108 16.4053 56.501 17.6149 56.501 19.102V37.8515C56.501 39.3386 57.7108 40.5482 59.1977 40.5482H63.0507C64.5376 40.5482 65.7474 39.3386 65.7474 37.8515V19.102C65.7474 17.6149 64.5376 16.4053 63.0507 16.4053ZM62.9223 37.723H59.3261V19.2304H62.9223V37.723Z" fill="#42A5F5"/>
<path d="M32.8735 0C32.0934 0 31.4609 0.632438 31.4609 1.41255V11.383C31.4609 12.1631 32.0934 12.7955 32.8735 12.7955C33.6536 12.7955 34.286 12.1631 34.286 11.383V1.41255C34.286 0.632438 33.6536 0 32.8735 0Z" fill="#42A5F5"/>
<path d="M25.2262 5.69852C24.8271 5.0282 23.96 4.80822 23.2898 5.20733C22.6195 5.60632 22.3995 6.47324 22.7986 7.14368L25.7524 12.1055C26.0167 12.5493 26.4859 12.7957 26.9675 12.7957C27.2133 12.7957 27.4622 12.7315 27.6888 12.5966C28.3591 12.1977 28.5791 11.3307 28.18 10.6603L25.2262 5.69852Z" fill="#42A5F5"/>
<path d="M42.4582 5.20746C41.7877 4.80861 40.921 5.02833 40.5219 5.69865L37.5681 10.6604C37.1691 11.3307 37.389 12.1977 38.0593 12.5968C38.2859 12.7316 38.5347 12.7957 38.7805 12.7957C39.262 12.7957 39.7314 12.5494 39.9957 12.1055L42.9494 7.14369C43.3484 6.47337 43.1286 5.60645 42.4582 5.20746Z" fill="#42A5F5"/>
</svg>
