<svg width="51" height="50" viewBox="0 0 51 50" fill="none" xmlns="http://www.w3.org/2000/svg">
<path d="M47.0319 35.0503H36.3447V37.2018H47.0319V35.0503Z" fill="#42A5F5"/>
<path d="M30.2088 50H19.8385C19.2443 50 18.7627 49.5183 18.7627 48.9242V39.0758C18.7627 38.4816 19.2443 38 19.8385 38H30.2088C30.8029 38 31.2846 38.4816 31.2846 39.0758V48.9242C31.2846 49.5183 30.8029 50 30.2088 50ZM20.9142 47.8484H29.1331V40.1515H20.9142V47.8484Z" fill="#42A5F5"/>
<path d="M13.7027 20.1348H3.01562V22.2863H13.7027V20.1348Z" fill="#42A5F5"/>
<path d="M13.7027 29.5508H3.01562V31.7023H13.7027V29.5508Z" fill="#42A5F5"/>
<path d="M13.7027 38.9666H3.01562V41.1181H13.7027V38.9666Z" fill="#42A5F5"/>
<path d="M30.3862 8.21379H19.6607C19.0666 8.21379 18.585 7.73214 18.585 7.13802C18.585 6.54391 19.0666 6.06226 19.6607 6.06226H30.3862C30.9803 6.06226 31.462 6.54391 31.462 7.13802C31.462 7.73223 30.9804 8.21379 30.3862 8.21379Z" fill="black"/>
<path d="M30.3862 14.5168H19.6607C19.0666 14.5168 18.585 14.0351 18.585 13.441C18.585 12.8469 19.0666 12.3652 19.6607 12.3652H30.3862C30.9803 12.3652 31.462 12.8469 31.462 13.441C31.462 14.0351 30.9804 14.5168 30.3862 14.5168Z" fill="black"/>
<path d="M30.3862 20.8197H19.6607C19.0666 20.8197 18.585 20.3381 18.585 19.744C18.585 19.1499 19.0666 18.6682 19.6607 18.6682H30.3862C30.9803 18.6682 31.462 19.1499 31.462 19.744C31.462 20.3381 30.9804 20.8197 30.3862 20.8197Z" fill="black"/>
<path d="M30.3862 27.123H19.6607C19.0666 27.123 18.585 26.6413 18.585 26.0472C18.585 25.4531 19.0666 24.9714 19.6607 24.9714H30.3862C30.9803 24.9714 31.462 25.4531 31.462 26.0472C31.462 26.6413 30.9804 27.123 30.3862 27.123Z" fill="black"/>
<path d="M30.3862 33.4259H19.6607C19.0666 33.4259 18.585 32.9443 18.585 32.3502C18.585 31.7561 19.0666 31.2744 19.6607 31.2744H30.3862C30.9803 31.2744 31.462 31.7561 31.462 32.3502C31.462 32.9443 30.9804 33.4259 30.3862 33.4259Z" fill="black"/>
<path d="M48.9962 47.8485H48.1072V29.2274C48.1072 28.6332 47.6256 28.1516 47.0315 28.1516H37.4201V1.07576C37.4201 0.481649 36.9384 0 36.3443 0H13.7031C13.109 0 12.6273 0.481649 12.6273 1.07576V11.253H3.01605C2.42194 11.253 1.94029 11.7346 1.94029 12.3288V47.8484H1.07576C0.481649 47.8484 0 48.33 0 48.9241C0 49.5182 0.481649 49.9999 1.07576 49.9999H3.01605H13.7031H36.3443H47.0315H48.9962C49.5903 49.9999 50.072 49.5182 50.072 48.9241C50.072 48.33 49.5903 47.8485 48.9962 47.8485ZM4.09182 13.4046H12.6273V47.8485H4.09182V13.4046ZM14.7789 12.3289V2.15153H35.2686V29.2273V47.8484H14.7789V12.3289ZM37.4201 47.8485V30.3031H45.9557V47.8485H37.4201Z" fill="black"/>
</svg>
