<svg width="51" height="51" viewBox="0 0 51 51" fill="none" xmlns="http://www.w3.org/2000/svg">
<path d="M25.5002 30.7321C20.3346 30.7321 16.1318 26.5295 16.1318 21.3637C16.1318 16.198 20.3345 11.9954 25.5002 11.9954C30.6659 11.9954 34.8687 16.198 34.8687 21.3637C34.8687 26.5295 30.6659 30.7321 25.5002 30.7321ZM25.5002 14.1869C21.5428 14.1869 18.3232 17.4064 18.3232 21.3638C18.3232 25.3212 21.5428 28.5408 25.5002 28.5408C29.4576 28.5408 32.6773 25.3212 32.6773 21.3638C32.6773 17.4064 29.4576 14.1869 25.5002 14.1869Z" fill="#42A5F5"/>
<path d="M39.9697 44.8904C37.72 38.8959 31.9051 34.8683 25.5 34.8683C19.0948 34.8683 13.2799 38.8959 11.0303 44.8904L8.97852 44.1204C10.227 40.7936 12.428 37.9483 15.3435 35.8921C18.326 33.7886 21.838 32.6768 25.4999 32.6768C29.1618 32.6768 32.6739 33.7886 35.6564 35.8921C38.5718 37.9483 40.7727 40.7936 42.0212 44.1204L39.9697 44.8904Z" fill="#42A5F5"/>
<path d="M25.5 51C11.2009 51 0 39.799 0 25.5C0 11.201 11.2009 0 25.5 0C39.7991 0 51 11.201 51 25.5C51 39.799 39.7991 51 25.5 51ZM25.5 2.19141C12.4298 2.19141 2.19141 12.4298 2.19141 25.5C2.19141 38.5702 12.4298 48.8086 25.5 48.8086C38.5702 48.8086 48.8086 38.5702 48.8086 25.5C48.8086 12.4298 38.5702 2.19141 25.5 2.19141Z" fill="black"/>
</svg>
