<svg width="50" height="50" viewBox="0 0 50 50" fill="none" xmlns="http://www.w3.org/2000/svg">
<path d="M34.5846 21.6013C34.3405 20.8501 33.7039 20.3075 32.9236 20.1853L28.7648 19.5345L26.8606 15.7803C26.5032 15.0758 25.7905 14.6382 25.0006 14.6382C24.2107 14.6382 23.498 15.0758 23.1407 15.7803L21.2367 19.5345L17.0777 20.1853C16.2973 20.3075 15.6608 20.85 15.4168 21.6012C15.1726 22.3524 15.3685 23.1655 15.9281 23.7232L18.9102 26.6942L18.244 30.8507C18.119 31.6306 18.4383 32.4035 19.0773 32.8678C19.7164 33.332 20.55 33.3972 21.2534 33.0371L25.0005 31.119L28.7478 33.0371C29.0495 33.1915 29.3753 33.2678 29.6995 33.2678C30.1305 33.2677 30.5589 33.1328 30.9236 32.8678C31.5626 32.4036 31.882 31.6307 31.7571 30.8506L31.0909 26.6941L34.0729 23.7231C34.6327 23.1655 34.8287 22.3525 34.5846 21.6013ZM29.5517 25.1947C29.0782 25.6664 28.8586 26.3421 28.9644 27.0022L29.6161 31.0678L25.9507 29.1917C25.6533 29.0394 25.327 28.9634 25.0006 28.9634C24.6742 28.9634 24.3478 29.0394 24.0504 29.1917L20.3852 31.0678L21.0369 27.0021C21.1426 26.3421 20.9231 25.6664 20.4495 25.1947L17.5327 22.2887L21.6006 21.652C22.2609 21.5487 22.8357 21.1312 23.1381 20.5349L25.0005 16.8628L26.863 20.5348C27.1653 21.131 27.7399 21.5486 28.4004 21.652L32.4683 22.2886L29.5517 25.1947Z" fill="#42A5F5"/>
<path d="M41.4589 0H8.54194C5.70743 0 3.40137 2.30597 3.40137 5.14057V20.1162C3.40137 27.2947 6.05051 33.9826 11.2753 39.9945C15.4844 44.8375 20.3125 47.9776 22.8159 49.4184C23.4896 49.8061 24.2451 50 25.0004 50C25.7557 50 26.5111 49.8061 27.1848 49.4184C29.6883 47.9776 34.5165 44.8375 38.7256 39.9945C43.9503 33.9826 46.5995 27.2947 46.5995 20.1162V5.14057C46.5995 2.30597 44.2935 0 41.4589 0ZM44.4509 20.1161C44.4509 26.7617 41.9791 32.9755 37.104 38.5849C33.1011 43.1908 28.4997 46.1826 26.1132 47.556C25.4269 47.951 24.5741 47.9511 23.8877 47.556C21.5011 46.1826 16.8999 43.1908 12.8969 38.5849C8.0218 32.9755 5.55 26.7617 5.55 20.1161V5.14057C5.54991 3.49069 6.89216 2.14854 8.54194 2.14854H41.4589C43.1088 2.14854 44.4509 3.49069 44.4509 5.14057V20.1161Z" fill="black"/>
<path d="M39.6653 5.09692H10.3351C9.20424 5.09692 8.28418 6.01699 8.28418 7.1478V20.33C8.28418 26.2972 10.5305 31.9075 14.9606 37.0051C18.0526 40.5627 21.5334 43.0936 23.9088 44.5903C24.2404 44.7992 24.6203 44.9036 25.0003 44.9036C25.3802 44.9036 25.76 44.7993 26.0915 44.5904C28.467 43.0938 31.9477 40.5629 35.0398 37.0051C39.4699 31.9075 41.7162 26.2971 41.7162 20.33V7.1478C41.7162 6.01699 40.7961 5.09692 39.6653 5.09692ZM39.5677 20.3301C39.5677 25.7644 37.4986 30.9004 33.4181 35.5957C30.5213 38.9289 27.2518 41.3148 25.0003 42.7385C22.7486 41.3148 19.4792 38.929 16.5823 35.5957C12.5018 30.9004 10.4327 25.7643 10.4327 20.3301V7.24546H39.5677V20.3301Z" fill="black"/>
<path d="M17.407 14.1465C19.586 12.8931 22.2119 12.2307 25.0005 12.2307C27.7892 12.2307 30.4149 12.8931 32.5941 14.1465C32.763 14.2436 32.947 14.2897 33.1287 14.2897C33.5007 14.2897 33.8623 14.0964 34.061 13.7509C34.3568 13.2365 34.1797 12.5799 33.6654 12.284C31.1609 10.8435 28.1646 10.082 25.0005 10.082C21.8366 10.082 18.8403 10.8435 16.3357 12.284C15.8214 12.5798 15.6443 13.2365 15.9401 13.7509C16.2359 14.2649 16.8923 14.4424 17.407 14.1465Z" fill="black"/>
</svg>
