<svg width="51" height="48" viewBox="0 0 51 48" fill="none" xmlns="http://www.w3.org/2000/svg">
<path d="M38.3641 18.6974C38.6443 18.6974 38.9248 18.5904 39.1387 18.3765L40.708 16.8073C41.1358 16.3794 41.1358 15.6858 40.708 15.2581C40.2801 14.8303 39.5865 14.8303 39.1588 15.2581L37.5894 16.8274C37.1616 17.2552 37.1616 17.9488 37.5894 18.3765C37.8034 18.5905 38.0838 18.6974 38.3641 18.6974Z" fill="#42A5F5"/>
<path d="M29.4763 15.0161C30.0813 15.0161 30.5717 14.5256 30.5717 13.9206V11.7014C30.5717 11.0964 30.0813 10.606 29.4763 10.606C28.8713 10.606 28.3809 11.0964 28.3809 11.7014V13.9207C28.3809 14.5256 28.8713 15.0161 29.4763 15.0161Z" fill="#42A5F5"/>
<path d="M19.9016 34.5152L18.2447 36.1721C17.8169 36.5999 17.8169 37.2935 18.2447 37.7213C18.4586 37.9352 18.7389 38.0422 19.0193 38.0422C19.2996 38.0422 19.5799 37.9352 19.7938 37.7213L21.4507 36.0644C21.8785 35.6366 21.8785 34.943 21.4507 34.5152C21.0228 34.0874 20.3294 34.0874 19.9016 34.5152Z" fill="#42A5F5"/>
<path d="M19.814 18.3765C20.028 18.5904 20.3083 18.6974 20.5886 18.6974C20.8689 18.6974 21.1494 18.5904 21.3632 18.3765C21.791 17.9487 21.791 17.2551 21.3632 16.8274L19.7939 15.2581C19.3661 14.8303 18.6725 14.8303 18.2447 15.2581C17.8169 15.6859 17.8169 16.3795 18.2447 16.8073L19.814 18.3765Z" fill="#42A5F5"/>
<path d="M17.0313 25.3943H14.6882C14.0832 25.3943 13.5928 25.8847 13.5928 26.4897C13.5928 27.0947 14.0832 27.5852 14.6882 27.5852H17.0313C17.6363 27.5852 18.1268 27.0947 18.1268 26.4897C18.1268 25.8847 17.6364 25.3943 17.0313 25.3943Z" fill="#42A5F5"/>
<path d="M44.265 25.3943H42.0456C41.4407 25.3943 40.9502 25.8847 40.9502 26.4897C40.9502 27.0947 41.4407 27.5852 42.0456 27.5852H44.265C44.87 27.5852 45.3604 27.0947 45.3604 26.4897C45.3604 25.8847 44.87 25.3943 44.265 25.3943Z" fill="#42A5F5"/>
<path d="M29.4763 37.8394C28.8713 37.8394 28.3809 38.3298 28.3809 38.9348V41.2779C28.3809 41.8829 28.8713 42.3734 29.4763 42.3734C30.0813 42.3734 30.5717 41.8829 30.5717 41.2779V38.9348C30.5717 38.3298 30.0813 37.8394 29.4763 37.8394Z" fill="#42A5F5"/>
<path d="M39.0517 34.5152C38.6238 34.0874 37.9304 34.0874 37.5025 34.5152C37.0747 34.943 37.0747 35.6366 37.5025 36.0644L39.1594 37.7213C39.3733 37.9352 39.6536 38.0422 39.934 38.0422C40.2143 38.0422 40.4946 37.9352 40.7085 37.7213C41.1364 37.2935 41.1364 36.5999 40.7085 36.1721L39.0517 34.5152Z" fill="#42A5F5"/>
<path d="M30.5721 23.3383V20.8916C30.5721 20.2866 30.0816 19.7961 29.4766 19.7961C28.8716 19.7961 28.3812 20.2866 28.3812 20.8916V23.3383C27.0781 23.7926 26.1406 25.0336 26.1406 26.4896C26.1406 28.3292 27.6371 29.8257 29.4766 29.8257C31.3162 29.8257 32.8128 28.3292 32.8128 26.4896C32.8128 25.0336 31.8752 23.7925 30.5721 23.3383ZM29.4766 27.6349C28.8451 27.6349 28.3315 27.1211 28.3315 26.4896C28.3315 25.8582 28.8451 25.3444 29.4766 25.3444C30.1082 25.3444 30.6219 25.8582 30.6219 26.4896C30.6219 27.1211 30.1082 27.6349 29.4766 27.6349Z" fill="#42A5F5"/>
<path d="M29.4774 10.4565C20.6368 10.4565 13.4443 17.649 13.4443 26.4897C13.4443 35.3304 20.6368 42.5229 29.4774 42.5229C38.3181 42.5229 45.5107 35.3304 45.5107 26.4897C45.5107 17.6491 38.3181 10.4565 29.4774 10.4565ZM29.4774 40.332C21.8447 40.332 15.6352 34.1224 15.6352 26.4897C15.6352 18.857 21.8447 12.6474 29.4774 12.6474C37.1102 12.6474 43.3198 18.8569 43.3198 26.4897C43.3198 34.1225 37.1102 40.332 29.4774 40.332Z" fill="black"/>
<path d="M1.97168 26.4897C1.97168 27.0947 2.46214 27.5852 3.06711 27.5852H4.56089C5.16586 27.5852 5.65632 27.0947 5.65632 26.4897C5.65632 25.8847 5.16586 25.3943 4.56089 25.3943H3.06711C2.46214 25.3943 1.97168 25.8846 1.97168 26.4897Z" fill="black"/>
<path d="M2.66184 18.6223H5.15146C5.75644 18.6223 6.24689 18.1318 6.24689 17.5268C6.24689 16.9219 5.75644 16.4314 5.15146 16.4314H2.66184C2.05686 16.4314 1.56641 16.9219 1.56641 17.5268C1.56641 18.1318 2.05676 18.6223 2.66184 18.6223Z" fill="black"/>
<path d="M35.513 5.84115C36.0472 5.22163 36.3706 4.41549 36.3706 3.53526C36.3706 1.58589 34.7846 0 32.8352 0H26.1188C24.1694 0 22.5835 1.58589 22.5835 3.53526C22.5835 4.41549 22.9069 5.22163 23.4411 5.84115C19.6313 6.9567 16.2561 9.10036 13.6381 11.9501H9.63234C9.02737 11.9501 8.53691 12.4405 8.53691 13.0455C8.53691 13.6505 9.02737 14.141 9.63234 14.141H11.8733C10.446 16.1697 9.36008 18.4551 8.69973 20.9129H5.59627C4.99129 20.9129 4.50084 21.4034 4.50084 22.0084C4.50084 22.6133 4.99129 23.1038 5.59627 23.1038H8.23298C8.05781 24.207 7.96679 25.3379 7.96679 26.4897C7.96679 27.6415 8.05781 28.7724 8.23298 29.8756H1.09543C0.490455 29.8756 0 30.366 0 30.971C0 31.576 0.490455 32.0664 1.09543 32.0664H8.69973C8.90976 32.8483 9.1629 33.6127 9.45638 34.3569H5.59627C4.99129 34.3569 4.50084 34.8473 4.50084 35.4523C4.50084 36.0573 4.99129 36.5477 5.59627 36.5477H10.4665C14.0823 43.3544 21.2473 48 29.477 48C41.3379 48 50.9873 38.3505 50.9873 26.4897C50.9873 16.7234 44.4451 8.45645 35.513 5.84115ZM26.1188 2.19097H32.8352C33.5765 2.19097 34.1797 2.79405 34.1797 3.53536C34.1797 4.27667 33.5766 4.87976 32.8353 4.87976H26.1189C25.3776 4.87976 24.7744 4.27667 24.7744 3.53536C24.7743 2.79395 25.3775 2.19097 26.1188 2.19097ZM29.477 45.8091C18.8242 45.8091 10.1577 37.1425 10.1577 26.4897C10.1577 15.8369 18.8242 7.17021 29.477 7.17021C40.1298 7.17021 48.7965 15.8369 48.7965 26.4897C48.7965 37.1425 40.1298 45.8091 29.477 45.8091Z" fill="black"/>
</svg>
