<svg width="41" height="54" viewBox="0 0 41 54" fill="none" xmlns="http://www.w3.org/2000/svg">
<path d="M39.7596 3.2168H31.2694V1.16016C31.2694 0.518906 30.7505 0 30.1092 0H10.8105C10.1693 0 9.65039 0.518906 9.65039 1.16016V3.2168H1.16016C0.519961 3.2168 0 3.7357 0 4.37695V52.8398C0 53.4811 0.519961 54 1.16016 54H39.7596C40.3998 54 40.9198 53.4811 40.9198 52.8398V4.37695C40.9198 3.7357 40.3998 3.2168 39.7596 3.2168ZM11.9707 2.32031H28.9491V6.43359H11.9707V2.32031ZM38.5995 51.6797H2.32031V5.53711H9.65039V7.59375C9.65039 8.23395 10.1693 8.75391 10.8105 8.75391H30.1092C30.7505 8.75391 31.2694 8.23395 31.2694 7.59375V5.53711H38.5995V51.6797Z" fill="black"/>
<path d="M10.8103 21.7271C8.397 21.7271 6.43359 19.7637 6.43359 17.3504C6.43359 14.937 8.397 12.9736 10.8103 12.9736C13.2237 12.9736 15.1871 14.937 15.1871 17.3504C15.1871 19.7637 13.2237 21.7271 10.8103 21.7271ZM10.8103 15.2939C9.67644 15.2939 8.75391 16.2165 8.75391 17.3504C8.75391 18.4843 9.67644 19.4068 10.8103 19.4068C11.9442 19.4068 12.8668 18.4843 12.8668 17.3504C12.8668 16.2165 11.9442 15.2939 10.8103 15.2939Z" fill="black"/>
<path d="M10.8103 47.4595C8.397 47.4595 6.43359 45.4961 6.43359 43.0828C6.43359 40.6695 8.397 38.7061 10.8103 38.7061C13.2237 38.7061 15.1871 40.6695 15.1871 43.0828C15.1871 45.4962 13.2237 47.4595 10.8103 47.4595ZM10.8103 41.0265C9.67644 41.0265 8.75391 41.949 8.75391 43.0829C8.75391 44.2168 9.67644 45.1393 10.8103 45.1393C11.9442 45.1393 12.8668 44.2168 12.8668 43.0829C12.8668 41.9489 11.9442 41.0265 10.8103 41.0265Z" fill="black"/>
<path d="M33.3263 37.5105H20.46C19.8192 37.5105 19.2998 36.9911 19.2998 36.3503C19.2998 35.7096 19.8192 35.1902 20.46 35.1902H33.3263C33.967 35.1902 34.4865 35.7096 34.4865 36.3503C34.4865 36.9911 33.967 37.5105 33.3263 37.5105Z" fill="#42A5F5"/>
<path d="M33.3263 31.3767H20.46C19.8192 31.3767 19.2998 30.8573 19.2998 30.2166C19.2998 29.5758 19.8192 29.0564 20.46 29.0564H33.3263C33.967 29.0564 34.4865 29.5758 34.4865 30.2166C34.4865 30.8573 33.967 31.3767 33.3263 31.3767Z" fill="black"/>
<path d="M33.3263 44.2432H20.46C19.8192 44.2432 19.2998 43.7237 19.2998 43.083C19.2998 42.4423 19.8192 41.9229 20.46 41.9229H33.3263C33.967 41.9229 34.4865 42.4423 34.4865 43.083C34.4865 43.7237 33.967 44.2432 33.3263 44.2432Z" fill="#42A5F5"/>
<path d="M10.8102 34.5933C10.5043 34.5933 10.2087 34.4723 9.98996 34.2535L6.77337 31.0369C6.32039 30.5838 6.32028 29.8492 6.77337 29.3961C7.22647 28.9431 7.96106 28.943 8.41415 29.3961L10.6022 31.5842L13.3663 27.1867C13.7073 26.6441 14.4234 26.481 14.966 26.8218C15.5084 27.1628 15.6718 27.879 15.3308 28.4215L11.7926 34.0505C11.6048 34.3494 11.291 34.5465 10.9402 34.5859C10.8968 34.5909 10.8534 34.5933 10.8102 34.5933Z" fill="#42A5F5"/>
</svg>
