<svg width="50" height="50" viewBox="0 0 50 50" fill="none" xmlns="http://www.w3.org/2000/svg">
<path d="M45.825 0H4.17479C1.87284 0 0 1.87284 0 4.17479V38.6047C0 40.9067 1.87284 42.7795 4.17479 42.7795H13.2732C11.891 43.2908 10.6705 43.838 9.63893 44.3552C5.95818 46.2004 3.83631 48.0395 3.74774 48.1169C3.30135 48.507 3.25594 49.1846 3.64559 49.6313C3.85789 49.8748 4.15584 49.9993 4.45545 49.9993C4.70574 49.9993 4.95721 49.9124 5.16072 49.7353C5.18084 49.7178 7.20896 47.9678 10.6656 46.244C13.8345 44.6636 18.8937 42.7796 24.9999 42.7796C31.1061 42.7796 36.1653 44.6636 39.3342 46.244C42.7707 47.9578 44.7953 49.6976 44.8385 49.7349C45.0421 49.9128 45.294 50 45.5446 50C45.8439 50 46.1415 49.8757 46.3538 49.6327C46.7443 49.186 46.6987 48.5074 46.2521 48.117C46.1636 48.0396 44.0416 46.2005 40.3609 44.3553C39.3292 43.8381 38.1088 43.2909 36.7266 42.7796H45.825C48.127 42.7796 49.9998 40.9068 49.9998 38.6048V4.17479C49.9998 1.87284 48.127 0 45.825 0ZM4.17479 2.14843H45.825C46.9423 2.14843 47.8514 3.05751 47.8514 4.17479V34.6745H2.14843V4.17479C2.14843 3.05751 3.05751 2.14843 4.17479 2.14843ZM45.825 40.6311H4.17479C3.05751 40.6311 2.14843 39.722 2.14843 38.6047V36.8229H47.8514V38.6047C47.8514 39.722 46.9423 40.6311 45.825 40.6311Z" fill="black"/>
<path d="M24.9997 6.00391C18.137 6.00391 12.5537 11.5871 12.5537 18.4499C12.5537 25.3125 18.1369 30.8957 24.9997 30.8957C31.8623 30.8957 37.4455 25.3125 37.4455 18.4499C37.4455 11.5871 31.8623 6.00391 24.9997 6.00391ZM35.2412 17.3756H30.4269C30.331 14.6117 29.8667 12.0328 29.0941 10.0233C28.9204 9.57167 28.7327 9.15634 28.5327 8.77684C32.1533 10.1034 34.8281 13.4084 35.2412 17.3756ZM24.9997 28.7473C24.5045 28.7473 23.6603 28.0553 22.9105 26.1053C22.2277 24.3294 21.8135 22.0235 21.7213 19.5241H28.2781C28.1857 22.0235 27.7716 24.3294 27.0887 26.1053C26.3389 28.0554 25.4948 28.7473 24.9997 28.7473ZM21.7213 17.3756C21.8136 14.8762 22.2277 12.5703 22.9105 10.7943C23.6603 8.84423 24.5045 8.15234 24.9997 8.15234C25.4948 8.15234 26.3389 8.84432 27.0887 10.7943C27.7716 12.5703 28.1857 14.8761 28.2781 17.3756H21.7213ZM21.4668 8.77675C21.2668 9.15624 21.079 9.57167 20.9052 10.0232C20.1326 12.0327 19.6683 14.6116 19.5724 17.3755H14.7581C15.1712 13.4084 17.8459 10.1034 21.4668 8.77675ZM14.7581 19.5241H19.5724C19.6683 22.288 20.1326 24.8669 20.9052 26.8764C21.0789 27.3279 21.2668 27.7434 21.4668 28.1229C17.8459 26.7963 15.1712 23.4913 14.7581 19.5241ZM28.5326 28.1229C28.7326 27.7434 28.9203 27.3279 29.094 26.8764C29.8666 24.8669 30.3309 22.288 30.4268 19.5241H35.2411C34.8281 23.4912 32.1533 26.7962 28.5326 28.1229Z" fill="#42A5F5"/>
</svg>
